<?xml version="1.0" standalone="no"?>
<!DOCTYPE svg PUBLIC "-//W3C//DTD SVG 20010904//EN"
 "http://www.w3.org/TR/2001/REC-SVG-20010904/DTD/svg10.dtd">
<svg version="1.0" xmlns="http://www.w3.org/2000/svg"
 width="200.000000pt" height="200.000000pt" viewBox="0 0 200.000000 200.000000"
 preserveAspectRatio="xMidYMid meet">

<g transform="translate(0.000000,200.000000) scale(0.100000,-0.100000)"
fill="#000000" stroke="none">
<path d="M930 1915 c-30 -19 -60 -34 -67 -35 -6 0 -13 -3 -15 -7 -3 -9 -62
-44 -118 -71 -19 -9 -37 -19 -40 -22 -7 -7 -80 -48 -120 -68 -19 -9 -37 -19
-40 -22 -7 -7 -80 -48 -120 -68 -19 -9 -37 -19 -40 -22 -3 -3 -14 -10 -25 -16
-11 -6 -42 -23 -70 -39 -27 -16 -62 -35 -77 -42 l-28 -14 1 -302 c1 -166 4
-385 8 -486 l6 -184 50 -27 c47 -26 110 -61 183 -102 17 -10 47 -26 65 -36 17
-10 55 -31 82 -47 28 -15 70 -39 95 -53 25 -14 60 -34 78 -44 18 -10 43 -24
55 -32 12 -7 47 -27 77 -43 30 -17 72 -40 93 -53 l37 -22 0 75 c0 48 -5 78
-12 85 -13 10 -44 28 -148 85 -30 17 -165 94 -300 172 l-245 141 5 289 c3 160
5 335 5 390 0 114 -10 99 115 167 36 19 84 46 106 59 23 13 139 80 258 148
l216 123 0 79 c0 44 -3 79 -7 78 -5 0 -33 -16 -63 -34z"/>
</g>
</svg>
